<?xml version="1.0" encoding="UTF-8"?>
<!DOCTYPE svg PUBLIC "-//W3C//DTD SVG 1.1//EN" "http://www.w3.org/Graphics/SVG/1.1/DTD/svg11.dtd">
<!-- Creator: CorelDRAW 2020 (64-Bit) -->
<svg xmlns="http://www.w3.org/2000/svg" xml:space="preserve" width="96px" height="96px" version="1.1" style="shape-rendering:geometricPrecision; text-rendering:geometricPrecision; image-rendering:optimizeQuality; fill-rule:evenodd; clip-rule:evenodd"
viewBox="0 0 95.01 95.01"
 xmlns:xlink="http://www.w3.org/1999/xlink"
 xmlns:xodm="http://www.corel.com/coreldraw/odm/2003">
 <defs>
  <style type="text/css">
   <![CDATA[
    .str0 {stroke:white;stroke-width:0.89;stroke-miterlimit:22.9256}
    .fil1 {fill:none}
    .fil0 {fill:white}
   ]]>
  </style>
    <clipPath id="id0">
     <path d="M12.02 0.45l70.97 0c6.37,0 11.57,5.2 11.57,11.57l0 70.97c0,6.37 -5.2,11.57 -11.57,11.57l-70.97 0c-6.37,0 -11.57,-5.2 -11.57,-11.57l0 -70.97c0,-6.37 5.2,-11.57 11.57,-11.57z"/>
    </clipPath>
 </defs>
 <g id="Layer_x0020_1">
  <metadata id="CorelCorpID_0Corel-Layer"/>
  <g id="_2090448486384">
   <g>
   </g>
   <g style="clip-path:url(#id0)">
    <g id="_2090448485904">
     <circle class="fil0" cx="48" cy="90.44" r="41.84"/>
    </g>
   </g>
   <path class="fil1 str0" d="M12.02 0.45l70.97 0c6.37,0 11.57,5.2 11.57,11.57l0 70.97c0,6.37 -5.2,11.57 -11.57,11.57l-70.97 0c-6.37,0 -11.57,-5.2 -11.57,-11.57l0 -70.97c0,-6.37 5.2,-11.57 11.57,-11.57z"/>
   <circle class="fil0" cx="48" cy="28.73" r="16"/>
  </g>
 </g>
</svg>
